<svg version="1.2" xmlns="http://www.w3.org/2000/svg" viewBox="0 0 52 52" width="52" height="52"><style>.a{fill:#c9dbf3}</style><path class="a" d="m49.6 24.6h-41.5l19.6-20.5c0.9-0.9 0.9-2.5 0-3.4-1-0.9-2.5-0.9-3.4 0l-23.6 24.6c-0.1 0.1-0.1 0.2-0.2 0.3-0.1 0.1-0.3 0.3-0.3 0.5-0.1 0.1-0.1 0.3-0.1 0.5-0.1 0.1-0.1 0.2-0.1 0.4q0 0 0 0 0 0 0 0c0 0.2 0.1 0.4 0.1 0.5 0 0.2 0 0.3 0.1 0.4 0 0.2 0.1 0.3 0.2 0.4 0.1 0.1 0.2 0.3 0.3 0.4q0 0 0 0l23.7 22.7c0.4 0.4 1 0.6 1.6 0.6 0.6 0 1.3-0.2 1.7-0.7 1-1 0.9-2.5-0.1-3.5l-19.2-18.4h41.2c1.3 0 2.4-1.1 2.4-2.4 0-1.4-1.1-2.4-2.4-2.4z"/></svg>