<svg version="1.2" xmlns="http://www.w3.org/2000/svg" viewBox="0 0 30 30" width="30" height="30"><style>.a{fill:#c1c8d7}</style><path fill-rule="evenodd" class="a" d="m30 27.9q0 0.3-0.2 0.6l-1.3 1.3q-0.2 0.2-0.5 0.2-0.3 0-0.5-0.2l-7.2-7.1q-0.1-0.3-0.1-0.5v-0.8q-1.7 1.4-3.7 2.2-2.1 0.8-4.3 0.8-3.3 0-6.1-1.7-2.8-1.6-4.4-4.4-1.7-2.8-1.7-6.1 0-3.4 1.7-6.1 1.6-2.8 4.4-4.5 2.8-1.6 6.1-1.6 3.3 0 6.1 1.6 2.8 1.7 4.4 4.5 1.7 2.7 1.7 6.1 0 2.2-0.8 4.3-0.8 2-2.2 3.7h0.8q0.3 0 0.5 0.1l7.1 7.2q0.2 0.2 0.2 0.4zm-13.1-7.6q2.2-1.3 3.4-3.4 1.3-2.2 1.3-4.7 0-2.5-1.3-4.7-1.2-2.2-3.4-3.4-2.2-1.3-4.7-1.3-2.5 0-4.7 1.3-2.2 1.2-3.4 3.4-1.3 2.2-1.3 4.7 0 2.5 1.3 4.7 1.2 2.1 3.4 3.4 2.2 1.3 4.7 1.3 2.5 0 4.7-1.3z"/></svg>