<svg version="1.2" xmlns="http://www.w3.org/2000/svg" viewBox="0 0 37 42" width="37" height="42"><style>.a{fill:#4f5864}</style><path fill-rule="evenodd" class="a" d="m37 40.6l-3.3-30.4c0-0.6-0.6-1.1-1.2-1.1h-6.1v-1.4c0-4.2-3.6-7.7-7.9-7.7-4.3 0-7.9 3.5-7.9 7.7v1.4h-6.1c-0.6 0-1.2 0.5-1.2 1.1l-3.3 30.4c0 0.4 0.1 0.7 0.3 1 0.3 0.2 0.6 0.4 1 0.4h34.4c0.4 0 0.7-0.2 1-0.4 0.2-0.3 0.3-0.6 0.3-1zm-23.8-32.9c0-2.9 2.4-5.2 5.3-5.2 2.9 0 5.3 2.3 5.3 5.2v1.4h-10.6zm-10.5 31.8l3-27.9h4.9v2.7c0 0.7 0.6 1.3 1.3 1.3 0.7 0 1.3-0.6 1.3-1.3v-2.7h10.6v2.7c0 0.7 0.6 1.3 1.3 1.3 0.7 0 1.3-0.6 1.3-1.3v-2.7h4.9l3 27.9z"/></svg>