<svg version="1.2" xmlns="http://www.w3.org/2000/svg" viewBox="0 0 537 516" width="537" height="516"><style>.a{fill:#fefefe}</style><path class="a" d="m537 258.4c0 27.9-24.5 51.5-32.7 76.6-8.4 26-2.7 59.5-18.5 81.2-15.9 21.8-49.6 26.7-71.5 42.6-21.6 15.8-36.6 46.4-62.6 54.9-25.1 8.1-55.1-7.6-82.9-7.6-27.8 0-57.8 15.7-82.9 7.6-26-8.5-40.9-39.1-62.6-54.9-21.9-15.9-55.5-20.8-71.4-42.6-15.8-21.7-10.1-55.2-18.6-81.2-8.1-25.1-32.7-48.7-32.7-76.6 0-27.8 24.6-51.4 32.7-76.5 8.5-26 2.8-59.5 18.6-81.2 15.9-21.9 49.5-26.7 71.4-42.6 21.7-15.8 36.6-46.4 62.6-54.9 25.1-8.2 55.1 7.6 82.9 7.6 27.8 0 57.8-15.8 82.9-7.6 26 8.5 41 39.1 62.6 54.9 21.9 15.9 55.6 20.7 71.5 42.6 15.8 21.7 10.1 55.2 18.5 81.2 8.2 25.1 32.7 48.7 32.7 76.5z"/></svg>